<?xml version="1.0" standalone="no"?>
<!DOCTYPE svg PUBLIC "-//W3C//DTD SVG 20010904//EN"
 "http://www.w3.org/TR/2001/REC-SVG-20010904/DTD/svg10.dtd">
<svg version="1.0" xmlns="http://www.w3.org/2000/svg"
 width="36.000000pt" height="36.000000pt" viewBox="0 0 36.000000 36.000000"
 preserveAspectRatio="xMidYMid meet">
<metadata>
Created by potrace 1.10, written by Peter Selinger 2001-2011
</metadata>
<g transform="translate(0.000000,36.000000) scale(0.100000,-0.100000)"
fill="#000000" stroke="none">
<path d="M145 261 c-7 -13 4 -18 43 -19 21 0 32 4 32 14 0 16 -65 20 -75 5z"/>
<path d="M82 227 c-25 -27 -28 -37 -9 -37 14 0 57 41 57 53 0 15 -28 6 -48
-16z"/>
<path d="M240 242 c0 -14 48 -54 60 -50 15 5 -27 58 -46 58 -8 0 -14 -4 -14
-8z"/>
<path d="M44 155 c-8 -20 3 -48 16 -40 13 8 13 55 0 55 -6 0 -13 -7 -16 -15z"/>
<path d="M300 146 c0 -27 15 -42 25 -26 8 13 -3 50 -16 50 -5 0 -9 -11 -9 -24z"/>
</g>
</svg>
