<svg width="30" height="29" viewBox="0 0 30 29" fill="none" xmlns="http://www.w3.org/2000/svg">
  <path d="M15.3617 21.2416C18.7612 21.2416 21.5171 18.4857 21.5171 15.0862C21.5171 11.6866 18.7612 8.93073 15.3617 8.93073C11.9621 8.93073 9.20624 11.6866 9.20624 15.0862C9.20624 18.4857 11.9621 21.2416 15.3617 21.2416Z" stroke="#00e6d2" stroke-width="2.7" stroke-linecap="round" stroke-linejoin="round"/>
  <path d="M2.24792 23.5993V8.41343C2.24792 6.61624 3.70484 5.15932 5.50203 5.15932H7.9034C8.66466 5.15932 9.40182 4.89243 9.98663 4.40509L12.0814 2.65945C12.6662 2.1721 13.4034 1.90521 14.1646 1.90521H15.0474H16.0016C16.7192 1.90521 17.4168 2.14246 17.9856 2.58004L20.6509 4.63024C21.0969 4.97331 21.6438 5.15932 22.2065 5.15932H25.0267C26.8239 5.15932 28.2808 6.61624 28.2808 8.41343V23.5993C28.2808 25.3965 26.8239 26.8534 25.0267 26.8534H5.50203C3.70484 26.8534 2.24792 25.3965 2.24792 23.5993Z" stroke="#00e6d2" stroke-width="2.7" stroke-linecap="round" stroke-linejoin="round"/>
</svg>
