<svg width="45" height="45" viewBox="0 0 45 45" fill="none" xmlns="http://www.w3.org/2000/svg">
<path d="M36.2086 22.7063L32.2081 26.7065C31.8171 27.0975 31.185 27.0975 30.7939 26.7065C30.4029 26.3155 30.4029 25.6834 30.7939 25.2924L33.0872 22.9993H23.5001V32.5859L25.7934 30.2927C26.1844 29.9017 26.8165 29.9017 27.2075 30.2927C27.5986 30.6837 27.5986 31.3158 27.2075 31.7068L23.2071 35.707C22.829 36.0861 22.1939 36.1091 21.7919 35.707L17.7914 31.7068C17.4004 31.3158 17.4004 30.6837 17.7914 30.2927C18.1825 29.9017 18.8145 29.9017 19.2056 30.2927L21.4999 32.5859V22.9993H11.9127L14.206 25.2924C14.5971 25.6834 14.5971 26.3155 14.206 26.7065C13.815 27.0975 13.1829 27.0975 12.7918 26.7065L8.79138 22.7063C8.40433 22.3192 8.40133 21.6812 8.79138 21.2912L12.7918 17.2909C13.1829 16.8999 13.815 16.8999 14.206 17.2909C14.5971 17.682 14.5971 18.314 14.206 18.705L11.9127 20.9992H21.4999V11.4126L19.2066 13.7057C18.8155 14.0967 18.1835 14.0967 17.7924 13.7057C17.4014 13.3147 17.4014 12.6827 17.7924 12.2916L21.7929 8.29139C22.1799 7.90437 22.818 7.90137 23.2081 8.29139L27.2085 12.2916C27.5996 12.6827 27.5996 13.3147 27.2085 13.7057C27.0125 13.9007 26.7565 13.9987 26.5004 13.9987C26.2444 13.9987 25.9884 13.9007 25.7934 13.7057L23.5001 11.4126V20.9992H33.0872L30.7939 18.706C30.4029 18.315 30.4029 17.683 30.7939 17.2919C31.185 16.9009 31.8171 16.9009 32.2081 17.2919L36.2086 21.2922C36.5986 21.6812 36.5956 22.3202 36.2086 22.7063Z" fill="#2E2E2F"/>
<path d="M27.9375 42.6562H17.0625C15.3938 42.6562 13.2562 41.775 12.0937 40.5937L4.40626 32.9062C3.22501 31.725 2.34375 29.5875 2.34375 27.9375V17.0625C2.34375 15.3938 3.22501 13.2563 4.40626 12.0938L12.0937 4.40626C13.275 3.22501 15.4125 2.34375 17.0625 2.34375H27.9375C29.6062 2.34375 31.7438 3.22501 32.9063 4.40626L40.5937 12.0938C41.775 13.275 42.6563 15.4125 42.6563 17.0625V27.9375C42.6563 29.6062 41.775 31.7437 40.5937 32.9062L32.9063 40.5937C31.725 41.775 29.6062 42.6562 27.9375 42.6562ZM17.0625 5.15625C16.1438 5.15625 14.7187 5.73751 14.0812 6.39376L6.39376 14.0813C5.75626 14.7375 5.15625 16.1438 5.15625 17.0625V27.9375C5.15625 28.8562 5.73751 30.2812 6.39376 30.9187L14.0812 38.6062C14.7375 39.2437 16.1438 39.8438 17.0625 39.8438H27.9375C28.8562 39.8438 30.2813 39.2625 30.9188 38.6062L38.6062 30.9187C39.2437 30.2625 39.8438 28.8562 39.8438 27.9375V17.0625C39.8438 16.1438 39.2625 14.7188 38.6062 14.0813L30.9188 6.39376C30.2625 5.75626 28.8562 5.15625 27.9375 5.15625H17.0625Z" fill="#898A8D"/>
<path d="M9.26237 37.1811C8.90612 37.1811 8.54987 37.0499 8.26862 36.7686C7.72487 36.2249 7.72487 35.3249 8.26862 34.7811L34.7811 8.26865C35.3249 7.7249 36.2249 7.7249 36.7686 8.26865C37.3124 8.8124 37.3124 9.7124 36.7686 10.2561L10.2561 36.7686C9.97487 37.0499 9.61862 37.1811 9.26237 37.1811Z" fill="#898A8D"/>
</svg>
